<?xml version="1.0" encoding="UTF-8"?>
<svg width="500px" height="258px" viewBox="0 0 500 258" version="1.1" xmlns="http://www.w3.org/2000/svg" xmlns:xlink="http://www.w3.org/1999/xlink">
    <!-- Generator: Sketch 42 (36781) - http://www.bohemiancoding.com/sketch -->
    <title>keyzie-landing</title>
    <desc>Created with Sketch.</desc>
    <defs></defs>
    <g id="Icons" stroke="none" stroke-width="1" fill="none" fill-rule="evenodd">
        <g id="keyzie-landing">
            <g id="Group" transform="translate(14.000000, 52.000000)">
                <g id="Brand-/-Logo-Orange" transform="translate(98.000000, 0.000000)" fill="#F28A56">
                    <path d="M211.510839,82.3330463 L223.781164,82.3330463 L223.781164,44.9533816 L211.510839,44.9533816 L211.510839,82.3330463 Z M211.510839,31.7803715 L223.781164,31.7803715 L223.781164,20.2090606 L211.510839,20.2090606 L211.510839,31.7803715 Z M230.384573,56.4944374 C230.384573,56.4944374 265.783673,56.441582 266.791381,56.3839879 L266.916607,44.9533816 L230.338294,44.9533816 L230.384573,56.4944374 Z M266.816594,31.7803715 L266.816594,20.2090606 L230.233861,20.2090606 C230.192124,24.1028592 230.197568,27.9354185 230.239305,31.7803715 L266.816594,31.7803715 Z M230.055124,70.5601561 L230.055124,82.3330463 C230.055124,82.3330463 265.788736,82.0891827 266.792833,82.0377854 L266.865364,70.5601561 L230.055124,70.5601561 Z M260.171472,82.0377854 C260.17333,82.1617221 260.190424,81.9269715 260.171472,82.0377854 L260.171472,82.0377854 Z M56.9130669,82.4190729 C57.1293463,82.4358408 57.2601545,82.4555249 57.3913342,82.4555249 C66.7240501,82.4566185 76.5777688,82.4588056 85.9104847,82.4464119 L86.0316309,81.8679193 L86.0316309,70.7456965 L50.5257642,70.7456965 C52.7149427,74.7470284 54.8205081,78.5948976 56.9130669,82.4190729 L56.9130669,82.4190729 Z M44.4547051,31.0177964 L85.9383557,31.0177964 L86.0624748,19.7439335 L52.5443719,19.7268011 C52.4317728,19.8853671 44.6706129,30.6937385 44.4547051,31.0177964 L44.4547051,31.0177964 Z M85.9517338,44.0923863 C69.0979208,44.1346705 52.2437361,44.1773193 35.389923,44.2199681 L41.9689786,55.8240858 C55.7837318,55.8091405 72.1314065,55.8291891 85.945788,55.7223848 C85.9981856,51.8460831 86.0000437,47.9686879 85.9517338,44.0923863 L85.9517338,44.0923863 Z M45.5810674,20.0749173 C45.5583989,19.993265 45.5353588,19.9116126 45.5126904,19.8295956 L32.3765045,19.8295956 C32.4092066,19.7916856 32.3653561,19.8401667 32.3244785,19.8904704 C25.6138716,28.1439237 18.5914805,36.7848614 11.87084,45.0310243 C11.9243524,30.0973844 12.0101952,15.1546315 12.0577618,0.222449656 C12.0577618,0.222449656 0.187665107,0.00118624495 0.260873079,9.26860784e-05 C0.246380131,0.000457205701 0.198441915,0.000821725324 0.178746369,0.00118624495 C0.0947615887,27.4079586 0.0349317229,54.8143664 0,82.2211388 L11.7898281,82.3392431 C11.7660448,75.8595423 11.8195572,67.2813021 11.8288476,60.8012367 L12.7158904,59.7787592 C14.7742607,57.2898192 16.8248272,54.7939533 18.8902582,52.3108457 C19.1466719,52.0024621 19.3213305,51.5446254 19.9541893,51.5912839 C20.1288479,51.8982095 20.3246885,52.2328385 20.5112388,52.5725708 C25.8242052,62.2403602 31.1416309,71.906327 36.4371315,81.583594 C36.7559764,82.1657318 37.0881993,82.4354763 37.8061577,82.4281859 C41.5405076,82.3884533 45.2756006,82.410689 49.010322,82.4074083 C49.298323,82.4070438 49.5863239,82.3760596 50.0422943,82.3494497 C42.4301517,69.1742525 34.8830414,56.1109627 27.3251544,43.029447 C33.4471247,35.3318862 39.514096,27.703584 45.5810674,20.0749173 L45.5810674,20.0749173 Z M205.576905,73.3942961 C205.292621,72.7651353 204.702869,72.9255239 204.209737,72.9193271 C194.501691,72.7946613 184.791787,72.8256455 175.085599,72.5599107 C174.263589,72.5373105 173.892346,71.7904098 174.364296,71.1481262 C181.896913,60.898928 189.472266,50.6861817 197.005627,40.438077 C198.345295,38.6154789 199.685336,36.7928808 201.025005,34.9702827 C201.860021,33.8337105 203.619986,32.2148789 203.614783,30.7054031 C203.610324,29.3792807 203.635965,28.0527938 203.637823,26.7263069 C203.640053,24.7119715 203.623702,21.7881596 203.605493,19.7738241 L185.148165,19.7745532 C177.796895,19.7734596 170.445997,19.7734596 163.095099,19.7792919 L161.884009,19.7738241 C161.884009,19.7738241 161.675162,26.5174372 161.798909,30.0408838 L163.299115,30.0984779 C171.577562,30.0984779 179.857867,30.2413696 188.136685,30.3219285 C191.8008,30.3576514 184.952696,38.2115912 184.952696,38.2115912 L176.776071,48.9623684 C171.397329,56.301971 166.012641,63.6375639 160.582988,70.9410791 C159.430613,72.510336 158.468132,73.4409546 158.396411,75.4064444 C158.315399,77.6420433 158.496375,79.8962326 158.496375,82.1340186 L205.811394,82.1340186 C205.811394,79.3370595 205.815482,76.6162851 205.80136,73.8955106 C205.800617,73.7281961 205.652715,73.5623397 205.576905,73.3942961 L205.576905,73.3942961 Z M156.36554,19.8631314 C156.36554,19.8631314 150.155126,34.3731995 149.548651,35.7642064 C147.046574,41.5032034 144.54524,47.2422003 142.043905,52.9811973 C137.040122,64.4591911 132.226605,76.0184729 127.033298,87.4155434 C124.866045,92.1714309 122.427513,98.2924444 120.572044,103.3877 C120.313772,104.096326 119.701724,103.99827 118.552693,103.992073 C116.303313,103.980409 114.053562,103.975305 111.804553,103.939947 C111.040515,103.927553 109.266058,103.997541 108.517998,103.818926 C107.360421,103.542621 107.929362,102.524882 108.436615,101.322696 C109.827566,98.0281677 111.218518,94.7340039 112.609469,91.43984 C113.88039,88.4285434 115.595017,85.4478665 116.638138,82.2914911 C117.328596,80.2027936 116.201119,78.0904024 115.440054,76.382628 C114.322239,73.8740039 113.37388,71.2782597 112.344137,68.7339127 C110.275733,63.6233476 108.207701,58.5135116 106.139297,53.4029465 L98.9496793,35.6380826 C97.7746356,32.7354129 96.5995919,29.8323786 95.4249198,26.9297089 C94.5356473,24.73202 93.4219199,21.9000671 92.6445033,19.8456345 C93.0781769,19.8146503 93.3665494,19.7767403 93.6552936,19.7763758 C96.2276062,19.7730951 98.8002904,19.7577853 101.372975,19.7490368 C102.604875,19.7450271 103.866877,19.7796565 105.097663,19.743569 C106.304665,19.7078461 105.514985,18.8774704 107.476736,24.2439283 C109.211059,28.9877866 110.835755,33.7881456 112.576024,38.5290878 C114.401392,43.5014999 116.255747,48.463341 118.138715,53.4149756 C119.059946,55.836844 119.991211,58.2550672 120.923219,60.6725613 C121.163282,61.2955253 122.957435,66.8409623 122.970441,66.8427849 C123.238375,66.8890789 123.516714,66.9885928 123.786506,66.9710959 L126.6654,60.6193414 C127.633826,58.3097451 128.602253,56.0001488 129.570679,53.6905524 C131.931171,48.0609114 134.355953,42.4586093 136.744317,36.8464652 C137.932367,34.0542449 139.078053,31.2448921 140.176173,28.4180425 C140.485356,27.6215671 143.292157,19.9619163 143.292157,19.9619163 C143.292157,19.9619163 155.859773,19.7935082 156.36554,19.8631314 L156.36554,19.8631314 Z" id="Page-1"></path>
                </g>
                <text id="Real-estate-on-your" font-family="AvenirNext-Regular, Avenir Next" font-size="27" font-weight="normal" letter-spacing="3.375" fill="#9B9CA5">
                    <tspan x="38.657" y="145">Real estate on your terms</tspan>
                </text>
            </g>
        </g>
    </g>
</svg>